<svg width="1200" height="675" viewBox="0 0 1200 675" fill="none" xmlns="http://www.w3.org/2000/svg">
  <defs>
    <style>
      .stroke{stroke:#C4320A;stroke-width:10;stroke-linecap:round;stroke-linejoin:round}
      .stroke2{stroke:#1D2939;stroke-width:8;stroke-linecap:round;stroke-linejoin:round}
      .fillBeige{fill:#FAF6EF}
      .fillCard{fill:#FFFFFF}
      .fillAccent{fill:#EC4A0A}
      .fillSoft{fill:#FFE8DF}
    </style>
  </defs>

  <rect x="0" y="0" width="1200" height="675" rx="40" class="fillBeige"/>

  <!-- Soft background shapes -->
  <path d="M160 160C240 70 400 70 470 160C540 250 470 360 350 370C230 380 110 300 120 220C128 185 145 175 160 160Z" class="fillSoft"/>
  <path d="M930 135C1040 95 1120 155 1130 255C1140 360 1050 445 930 410C820 380 770 270 805 200C830 150 875 150 930 135Z" class="fillSoft"/>

  <!-- Main card -->
  <rect x="210" y="165" width="520" height="360" rx="28" class="fillCard"/>
  <rect x="210" y="165" width="520" height="360" rx="28" class="stroke2" fill="none"/>

  <!-- Shield -->
  <path d="M470 215L570 255V340C570 400 525 445 470 465C415 445 370 400 370 340V255L470 215Z" class="fillSoft"/>
  <path d="M470 215L570 255V340C570 400 525 445 470 465C415 445 370 400 370 340V255L470 215Z" class="stroke2" fill="none"/>

  <!-- Checkmark on shield -->
  <path d="M420 330L455 365L525 295" class="stroke"/>

  <!-- Cookie + slash (no tracking) -->
  <circle cx="860" cy="320" r="105" class="fillCard"/>
  <circle cx="860" cy="320" r="105" class="stroke2" fill="none"/>
  <circle cx="825" cy="300" r="10" class="fillAccent"/>
  <circle cx="890" cy="285" r="8" class="fillAccent"/>
  <circle cx="875" cy="345" r="9" class="fillAccent"/>
  <path d="M805 365C825 385 855 395 885 392" class="stroke2"/>
  <path d="M790 260L930 400" class="stroke"/>

  <!-- Data lines on card -->
  <path d="M260 430H530" class="stroke2"/>
  <path d="M260 475H610" class="stroke2"/>

  <!-- Small lock icon -->
  <rect x="600" y="240" width="78" height="78" rx="16" class="fillSoft"/>
  <rect x="600" y="240" width="78" height="78" rx="16" class="stroke2" fill="none"/>
  <path d="M628 272V265C628 253 638 243 650 243C662 243 672 253 672 265V272" class="stroke2"/>
  <path d="M628 272H672" class="stroke2"/>
  <path d="M650 287V299" class="stroke2"/>

  <!-- Decorative dots -->
  <circle cx="170" cy="520" r="8" class="fillAccent"/>
  <circle cx="210" cy="545" r="6" class="fillAccent"/>
  <circle cx="1035" cy="165" r="8" class="fillAccent"/>
  <circle cx="1075" cy="190" r="6" class="fillAccent"/>
</svg>
